<?xml version="1.0" encoding="UTF-8"?>
<svg id="Layer_2" data-name="Layer 2" xmlns="http://www.w3.org/2000/svg" viewBox="0 0 35.44 35.44">
  <defs>
    <style>
      .cls-1 {
        fill: #010101;
      }

      .cls-2 {
        fill: #fefefe;
      }
    </style>
  </defs>
  <g id="Layer_1-2" data-name="Layer 1">
    <g>
      <circle class="cls-2" cx="17.72" cy="17.72" r="17.72"/>
      <g>
        <path class="cls-1" d="m17.72,8.57c2.98,0,3.33.01,4.51.07,1.09.05,1.68.23,2.07.38.52.2.89.44,1.28.83.39.39.63.76.83,1.28.15.39.33.98.38,2.07.05,1.18.07,1.53.07,4.51s-.01,3.33-.07,4.51c-.05,1.09-.23,1.68-.38,2.07-.2.52-.44.89-.83,1.28-.39.39-.76.63-1.28.83-.39.15-.98.33-2.07.38-1.18.05-1.53.07-4.51.07s-3.33-.01-4.51-.07c-1.09-.05-1.68-.23-2.07-.38-.52-.2-.89-.44-1.28-.83-.39-.39-.63-.76-.83-1.28-.15-.39-.33-.98-.38-2.07-.05-1.18-.07-1.53-.07-4.51s.01-3.33.07-4.51c.05-1.09.23-1.68.38-2.07.2-.52.44-.89.83-1.28.39-.39.76-.63,1.28-.83.39-.15.98-.33,2.07-.38,1.18-.05,1.53-.07,4.51-.07m0-2.01c-3.03,0-3.41.01-4.6.07-1.19.05-2,.24-2.71.52-.73.29-1.36.67-1.98,1.29-.62.62-1,1.24-1.29,1.98-.28.71-.46,1.52-.52,2.71-.05,1.19-.07,1.57-.07,4.6s.01,3.41.07,4.6c.05,1.19.24,2,.52,2.71.29.73.67,1.36,1.29,1.98.62.62,1.24,1,1.98,1.29.71.28,1.52.46,2.71.52,1.19.05,1.57.07,4.6.07s3.41-.01,4.6-.07c1.19-.05,2-.24,2.71-.52.73-.29,1.36-.67,1.98-1.29.62-.62,1-1.24,1.29-1.98.28-.71.46-1.52.52-2.71.05-1.19.07-1.57.07-4.6s-.01-3.41-.07-4.6c-.05-1.19-.24-2-.52-2.71-.29-.73-.67-1.36-1.29-1.98-.62-.62-1.24-1-1.98-1.29-.71-.28-1.52-.46-2.71-.52-1.19-.05-1.57-.07-4.6-.07h0Z"/>
        <path class="cls-1" d="m17.72,11.99c-3.16,0-5.73,2.57-5.73,5.73s2.57,5.73,5.73,5.73,5.73-2.57,5.73-5.73-2.57-5.73-5.73-5.73Zm0,9.45c-2.05,0-3.72-1.67-3.72-3.72s1.67-3.72,3.72-3.72,3.72,1.67,3.72,3.72-1.67,3.72-3.72,3.72Z"/>
        <circle class="cls-1" cx="23.68" cy="11.77" r="1.34"/>
      </g>
    </g>
  </g>
</svg>