<svg id="bc867a15-4305-4dd6-8b9d-321d6a3cedfb" data-name="Layer 1" xmlns="http://www.w3.org/2000/svg" viewBox="0 0 78.97 14.85">
  <defs>
    <style>
      .f13f1c8c-6de6-41e3-a66d-80a05071f0e6 {
        fill: white;
      }

      .b8b5c9bd-ee7a-469f-8739-46b5e167a5c9 {
        fill: white;
      }
    </style>
  </defs>
  <g id="a32778ad-e7c3-415e-be69-0ab413fcdc86" data-name="logo home page">
    <polygon class="f13f1c8c-6de6-41e3-a66d-80a05071f0e6" points="3.96 3.96 0 3.96 0 0.33 12.27 0.33 12.27 3.96 8.31 3.96 8.31 14.47 3.96 14.47 3.96 3.96"/>
    <polygon class="f13f1c8c-6de6-41e3-a66d-80a05071f0e6" points="12.95 0.33 24.86 0.33 24.86 3.96 17.3 3.96 17.3 5.72 24.86 5.72 24.86 9.08 17.3 9.08 17.3 10.85 24.86 10.85 24.86 14.47 12.95 14.47 12.95 0.33"/>
    <path class="f13f1c8c-6de6-41e3-a66d-80a05071f0e6" d="M-5.07,89.28H2.08c4.71,0,6.37,3.48,6.37,7,0,4.33-2.29,7.08-7.22,7.08h-6.3ZM-.71,99.79H1c2.71,0,3.11-2.2,3.11-3.53A3.13,3.13,0,0,0,.67,92.9H-.71Z" transform="translate(30.66 -88.95)"/>
    <polygon class="f13f1c8c-6de6-41e3-a66d-80a05071f0e6" points="45.37 9.02 44.04 6.82 42.75 9.02 39.56 9.02 42.59 4.57 39.67 0.31 42.86 0.31 44.04 2.41 45.26 0.31 48.45 0.31 45.53 4.57 48.56 9.02 45.37 9.02"/>
    <polygon class="b8b5c9bd-ee7a-469f-8739-46b5e167a5c9" points="51.15 0.38 52.1 0.38 53.06 0.38 53.06 14.47 52.11 14.47 51.15 14.47 51.15 0.38"/>
    <polygon class="b8b5c9bd-ee7a-469f-8739-46b5e167a5c9" points="59.86 2.07 55.1 2.07 55.1 1.23 55.1 0.38 66.53 0.38 66.53 1.23 66.53 2.07 61.77 2.07 61.77 14.47 60.82 14.47 59.86 14.47 59.86 2.07"/>
    <path class="b8b5c9bd-ee7a-469f-8739-46b5e167a5c9" d="M46.22,93.41a2.88,2.88,0,0,0-1-2.06,4,4,0,0,0-2.49-.72,4.08,4.08,0,0,0-2.44.62,2.13,2.13,0,0,0-.83,1.82A1.4,1.4,0,0,0,40,94.29a7.18,7.18,0,0,0,2.23.8l2.46.58a5.47,5.47,0,0,1,2.81,1.39,4.08,4.08,0,0,1-.6,5.61,6.28,6.28,0,0,1-3.94,1.13,6.56,6.56,0,0,1-4.31-1.3A4.31,4.31,0,0,1,37.1,99v-.1h1.75A3,3,0,0,0,40,101.28a4.73,4.73,0,0,0,3,.83,4.89,4.89,0,0,0,2.67-.6,2,2,0,0,0,.91-1.78,1.82,1.82,0,0,0-.6-1.5,6.62,6.62,0,0,0-2.4-.91l-2.45-.59a5.64,5.64,0,0,1-2.66-1.22,2.93,2.93,0,0,1-.79-2.18A4,4,0,0,1,39,90.13,5.51,5.51,0,0,1,42.68,89a5.69,5.69,0,0,1,3.79,1.18A4.34,4.34,0,0,1,48,93.41Z" transform="translate(30.66 -88.95)"/>
  </g>
</svg>
