<?xml version="1.0" encoding="UTF-8"?>
<svg id="Layer_2" data-name="Layer 2" xmlns="http://www.w3.org/2000/svg" viewBox="0 0 35.44 35.44">
  <defs>
    <style>
      .cls-1 {
        fill: #010101;
      }

      .cls-2 {
        fill: #fefefe;
      }
    </style>
  </defs>
  <g id="Layer_1-2" data-name="Layer 1">
    <g>
      <circle class="cls-2" cx="17.72" cy="17.72" r="17.72"/>
      <g>
        <path class="cls-1" d="m19.09,15.3c.29-.33.53-.66.83-.94.92-.87,2.01-1.3,3.28-1.29.7,0,1.39.06,2.06.25,1.54.44,2.43,1.5,2.86,3.01.32,1.13.38,2.28.38,3.44,0,2.45,0,4.9,0,7.34,0,.23-.06.29-.29.29-1.26-.01-2.52-.01-3.78,0-.22,0-.27-.07-.27-.28,0-2.33,0-4.66,0-6.99,0-.58-.04-1.17-.2-1.73-.3-1.05-1.05-1.58-2.15-1.52-1.5.08-2.27.82-2.46,2.34-.05.36-.07.73-.07,1.09,0,2.27,0,4.53,0,6.8,0,.23-.06.29-.29.29-1.27-.01-2.54,0-3.81,0-.2,0-.26-.05-.26-.26,0-4.49,0-8.97,0-13.46,0-.22.07-.27.28-.27,1.21,0,2.41.01,3.62,0,.22,0,.28.07.27.28-.01.54,0,1.07,0,1.61Z"/>
        <path class="cls-1" d="m12.18,20.43c0,2.22,0,4.44,0,6.66,0,.25-.06.32-.32.32-1.26-.01-2.52-.01-3.78,0-.2,0-.26-.05-.26-.26,0-4.49,0-8.99,0-13.48,0-.19.04-.25.24-.25,1.28,0,2.56.01,3.84,0,.25,0,.28.09.28.3,0,2.24,0,4.47,0,6.71Z"/>
        <path class="cls-1" d="m12.53,8.96c0,1.39-1.13,2.53-2.52,2.53-1.37,0-2.51-1.14-2.52-2.51,0-1.39,1.14-2.53,2.52-2.53,1.38,0,2.51,1.13,2.51,2.51Z"/>
      </g>
    </g>
  </g>
</svg>