<?xml version="1.0" encoding="UTF-8"?>
<svg id="Layer_2" data-name="Layer 2" xmlns="http://www.w3.org/2000/svg" viewBox="0 0 35.44 35.44">
  <defs>
    <style>
      .cls-1 {
        fill: #010101;
      }

      .cls-2 {
        fill: #fefefe;
      }
    </style>
  </defs>
  <g id="Layer_1-2" data-name="Layer 1">
    <g>
      <circle class="cls-2" cx="17.72" cy="17.72" r="17.72"/>
      <path class="cls-1" d="m14.14,27.93c8.66,0,13.39-7.17,13.39-13.39,0-.2,0-.41-.01-.61.92-.66,1.72-1.49,2.35-2.44-.84.37-1.75.63-2.7.74.97-.58,1.72-1.5,2.07-2.6-.91.54-1.92.93-2.99,1.14-.86-.91-2.08-1.49-3.44-1.49-2.6,0-4.71,2.11-4.71,4.71,0,.37.04.73.12,1.07-3.91-.2-7.38-2.07-9.7-4.92-.4.7-.64,1.5-.64,2.37,0,1.63.83,3.07,2.09,3.92-.77-.02-1.5-.24-2.13-.59,0,.02,0,.04,0,.06,0,2.28,1.62,4.18,3.78,4.61-.4.11-.81.17-1.24.17-.3,0-.6-.03-.88-.08.6,1.87,2.34,3.23,4.4,3.27-1.61,1.26-3.64,2.01-5.84,2.01-.38,0-.75-.02-1.12-.07,2.08,1.33,4.56,2.11,7.21,2.11"/>
    </g>
  </g>
</svg>